<svg id="information-logotype-in-a-circle" xmlns="http://www.w3.org/2000/svg" width="20.999" height="21" viewBox="0 0 20.999 21">
  <path id="Path_687" data-name="Path 687" d="M10.5,0A10.5,10.5,0,1,0,21,10.5,10.5,10.5,0,0,0,10.5,0Zm0,19.287A8.789,8.789,0,1,1,19.288,10.5,8.786,8.786,0,0,1,10.5,19.287Z" fill="#203049"/>
  <path id="Path_688" data-name="Path 688" d="M15.157,11.143H12.205v0h-1.1v1.716h1.1v6.128H11.039v1.64h1.166v.011h2.951v-.011h.966v-1.64h-.966Z" transform="translate(-3.19 -3.22)" fill="#203049"/>
  <path id="Path_689" data-name="Path 689" d="M14.1,8.305a1.478,1.478,0,1,0,.04-2.95,1.477,1.477,0,1,0-.04,2.95Z" transform="translate(-3.633 -1.547)" fill="#203049"/>
</svg>
