<svg xmlns="http://www.w3.org/2000/svg" xmlns:xlink="http://www.w3.org/1999/xlink" width="129.173" height="130.025" viewBox="0 0 129.173 130.025">
  <defs>
    <linearGradient id="linear-gradient" x1="0.5" x2="0.5" y2="1" gradientUnits="objectBoundingBox">
      <stop offset="0" stop-color="#ec77ab"/>
      <stop offset="1" stop-color="#7873f5"/>
    </linearGradient>
    <linearGradient id="linear-gradient-2" y1="1" y2="0" xlink:href="#linear-gradient"/>
    <linearGradient id="linear-gradient-3" x1="0.5" x2="0.5" y2="1" gradientUnits="objectBoundingBox">
      <stop offset="0" stop-color="#ff9a44"/>
      <stop offset="1" stop-color="#fc6076"/>
    </linearGradient>
  </defs>
  <g id="_020---Astronaut-Fishing" data-name="020---Astronaut-Fishing" transform="translate(-0.355 -0.962)">
    <g id="Icons" transform="translate(2.524 3.21)">
      <path id="Shape" d="M44.869,28.6c-.325.736-.671,1.451-1.061,2.166-8.9,5.523-22.328,4.5-29.475-2.3a12.171,12.171,0,0,1,0-18.625c7.32-6.909,20.791-7.71,29.432-2.3a23.519,23.519,0,0,1,1.1,21.051Z" transform="translate(10.884 4.666)" fill="url(#linear-gradient)"/>
      <path id="Shape-2" data-name="Shape" d="M34.437,30.783A25.771,25.771,0,0,1,18,34.118a23.952,23.952,0,0,0,9.94-3.335,23.519,23.519,0,0,0,1.1-21.05C28.72,9,28.374,8.281,27.984,7.567A24.407,24.407,0,0,0,18,4.21,25.988,25.988,0,0,1,34.459,7.567,22.317,22.317,0,0,1,35.52,9.732,23.519,23.519,0,0,1,34.437,30.783Z" transform="translate(20.211 4.66)" fill="url(#linear-gradient-2)"/>
      <path id="Shape-3" data-name="Shape" d="M49.622,35.4A23.584,23.584,0,0,1,37.494,45.925a23.606,23.606,0,0,1-17.78,0l-.282-.13A23.823,23.823,0,0,1,5.009,25.026a11.759,11.759,0,0,1,0-1.234A23.823,23.823,0,0,1,49.6,12.183c-8.641-5.414-22.112-4.613-29.432,2.3a12.171,12.171,0,0,0,0,18.625c7.147,6.8,20.574,7.818,29.454,2.3Z" transform="translate(5.048 0.032)" fill="#d7dde6"/>
      <g id="Group_8049" data-name="Group 8049" transform="translate(30.501 0)">
        <path id="Shape-4" data-name="Shape" d="M29.818,9.053a23.541,23.541,0,0,1,8.663,3.162A23.584,23.584,0,0,0,17.69,0a21.44,21.44,0,0,0-3.14.238A23.39,23.39,0,0,1,29.818,9.053Z" transform="translate(-14.312 0)" fill="#cfd8dc"/>
        <path id="Shape-5" data-name="Shape" d="M29.99,19.522a24.3,24.3,0,0,1-2.166,2.361,23.087,23.087,0,0,1-7.84,5,24.6,24.6,0,0,1-5.544,1.451,23.823,23.823,0,0,0,12.041-1.451A23.584,23.584,0,0,0,38.544,16.36a23.823,23.823,0,0,1-8.555,3.162Z" transform="translate(-14.44 19.071)" fill="#cfd8dc"/>
        <path id="Shape-6" data-name="Shape" d="M31.81,33.2c-3.1,2.815-6.042,5.739-8.814,8.663-1.776-2.491,0-6.281-.39-9.269a27.851,27.851,0,0,0-2.556-8.663,23.086,23.086,0,0,0,7.818-5C30.77,22.612,31.29,28.806,31.81,33.2Z" transform="translate(-7.9 22.067)" fill="#d7dde6"/>
      </g>
      <path id="Shape-7" data-name="Shape" d="M16.239,59a25.274,25.274,0,0,0-2.491,2.014l-4.2-1.646A6.5,6.5,0,0,1,5.519,54.3L.429,20.319a6.5,6.5,0,0,1,4.635-7.212l5.349-1.538A23.649,23.649,0,0,0,13.488,22.1c-.845,1.408-.823,2.014-1.451,5.869a19.318,19.318,0,0,0,.5,8.663v15.94A7.537,7.537,0,0,0,16.239,59Z" transform="translate(-0.356 13.487)" fill="#d7dde6"/>
      <path id="Shape-8" data-name="Shape" d="M38.248,46.447c-.152.282-.3.541-.476.8a6.324,6.324,0,0,1-5.371,2.9c-2.014,0-1.906-.195-15.983-7.212A19.491,19.491,0,0,1,5.914,22.3c.628-3.855.606-4.461,1.451-5.869a23.823,23.823,0,0,0,11.37,10.157,6.5,6.5,0,0,0,3.508,4.721l12.994,6.5a6.5,6.5,0,0,1,2.642,2.426A6.367,6.367,0,0,1,38.248,46.447Z" transform="translate(5.811 19.153)" fill="#d7dde6"/>
      <path id="Shape-9" data-name="Shape" d="M38.486,43.423v21.44a7.71,7.71,0,0,1-6,7.623,7.558,7.558,0,0,1-9.161-7.407V51a2.166,2.166,0,0,0-1.646-2.166c.217,0-10.006-2.469-10.5-2.642a7.623,7.623,0,0,1-1.516-.758A7.537,7.537,0,0,1,6,38.94V23.13a19.492,19.492,0,0,0,10.006,12c14.077,7.017,13.969,7.212,15.983,7.212a6.324,6.324,0,0,0,5.371-2.88,7.6,7.6,0,0,1,1.126,3.963Z" transform="translate(6.222 26.963)" fill="#d7dde6"/>
      <path id="Shape-10" data-name="Shape" d="M31.168,40.956a6.367,6.367,0,0,0-.3-6.172,6.5,6.5,0,0,0-2.642-2.426l-12.994-6.5A6.5,6.5,0,0,1,11.72,21.14l.282.13a23.606,23.606,0,0,0,17.78,0,27.851,27.851,0,0,1,2.556,8.663c.282,2.989-1.386,6.779.39,9.269-.563.693-1.04,1.126-1.559,1.754Z" transform="translate(12.89 24.643)" fill="#d7dde6"/>
      <path id="Shape-11" data-name="Shape" d="M89.674,19.635C66.7,24.746,47.4,39.516,36.03,49.955c-4.18,3.855-10.244,10.482-14.424,15.16v-7.58a7.6,7.6,0,0,0-1.126-3.963c.173-.26.325-.52.476-.8.52-.541,1-1.061,1.538-1.6,2.772-2.989,5.717-5.912,8.814-8.663,16.048-14.77,35.777-26.833,56.5-31.424a4.331,4.331,0,0,1,1.863,8.446Z" transform="translate(23.102 12.851)" fill="url(#linear-gradient-3)"/>
      <path id="Shape-12" data-name="Shape" d="M68.165,39.783c.715,3.66-2.62,6.5-6.5,6.5-4.938,0-8.1-4.331-5.652-8.1A19.491,19.491,0,1,0,69.7,73.957a8.663,8.663,0,1,1,9.118-14.1,15.873,15.873,0,0,0,.173-2.577,19.491,19.491,0,0,0-10.828-17.5ZM52.031,63.605a2.358,2.358,0,1,0-.108-.087Z" transform="translate(45.845 44.507)" fill="url(#linear-gradient-3)"/>
      <path id="Shape-13" data-name="Shape" d="M53.5,46.4c-4.938,0-8.1-4.331-5.652-8.1a20.464,20.464,0,0,1,3.487-.3,19.491,19.491,0,0,1,8.663,1.971C60.6,43.653,57.266,46.4,53.5,46.4Z" transform="translate(54.015 44.297)" fill="url(#linear-gradient)"/>
      <path id="Shape-14" data-name="Shape" d="M66,49.643a19.491,19.491,0,0,1-9.118,14.1A8.663,8.663,0,1,1,66,49.643Z" transform="translate(58.663 54.635)" fill="url(#linear-gradient)"/>
      <path id="Shape-15" data-name="Shape" d="M58.157,46.359v2.512A7.58,7.58,0,0,1,43,48.742v4.115a7.71,7.71,0,0,1-6,7.623,7.558,7.558,0,0,1-9.161-7.407V39a2.166,2.166,0,0,0-1.646-2.166c.217,0-10.006-2.469-10.5-2.642a7.623,7.623,0,0,1-1.516-.758,25.274,25.274,0,0,0-2.491,2.014,28.522,28.522,0,0,0-6.324,7.948A9.746,9.746,0,1,1,2.13,61.216,29.259,29.259,0,0,0,43.278,83.869,8.663,8.663,0,1,1,56.164,72.326a28.825,28.825,0,0,0,1.992-25.967ZM25.671,77.978a6.5,6.5,0,1,1,6.5-6.5A6.5,6.5,0,0,1,25.671,77.978Z" transform="translate(1.711 38.97)" fill="url(#linear-gradient-3)"/>
      <path id="Shape-16" data-name="Shape" d="M2.13,46.32a6.759,6.759,0,0,0,.238,1.321,8.772,8.772,0,0,0,1.646-.433A8.3,8.3,0,0,1,2.13,46.32Z" transform="translate(1.711 53.995)" fill="#545c60"/>
      <path id="Shape-17" data-name="Shape" d="M36.16,32.249V54.035A7.58,7.58,0,1,1,21,53.906V44.16C25.18,39.46,31.244,32.833,35.424,29a7.6,7.6,0,0,1,.736,3.249Z" transform="translate(23.708 33.806)" fill="#d7dde6"/>
      <path id="Shape-18" data-name="Shape" d="M33.092,29c-1.689,1.559-3.7,3.6-5.761,5.739V54.057A7.645,7.645,0,0,1,23,60.749a7.472,7.472,0,0,0,3.249.758,7.623,7.623,0,0,0,7.58-7.472V32.249A7.6,7.6,0,0,0,33.092,29Z" transform="translate(26.039 33.806)" fill="#d7dde6"/>
      <path id="Shape-19" data-name="Shape" d="M17.16,47.744A9.746,9.746,0,0,1,2.282,56.017,26.4,26.4,0,0,1,2,52.076,28.955,28.955,0,0,1,5.487,38.194,9.746,9.746,0,0,1,17.16,47.744Z" transform="translate(1.56 44.298)" fill="url(#linear-gradient)"/>
      <path id="Shape-20" data-name="Shape" d="M35.358,53.173A29.129,29.129,0,0,1,22.494,64.738,8.663,8.663,0,1,1,35.38,53.195Z" transform="translate(22.496 58.231)" fill="url(#linear-gradient)"/>
      <circle id="Oval" cx="5.414" cy="5.414" r="5.414" transform="translate(92.353 97.197)" fill="url(#linear-gradient)"/>
      <path id="Shape-21" data-name="Shape" d="M27.092,51.462l-.022-.022" transform="translate(30.784 59.964)" fill="#7f8e94"/>
      <circle id="Oval-2" data-name="Oval" cx="6.497" cy="6.497" r="6.497" transform="translate(20.885 103.954)" fill="url(#linear-gradient)"/>
    </g>
    <g id="Stroke" transform="translate(0.355 0.962)">
      <path id="Shape-22" data-name="Shape" d="M19,10.166a2.166,2.166,0,0,0,2.166,2.166c.347,0,8.663,0,8.663,6.5a2.166,2.166,0,0,0,4.331,0C34.16,10.166,25.67,8,21.166,8A2.166,2.166,0,0,0,19,10.166Z" transform="translate(21.379 7.243)" fill="#203049"/>
      <path id="Shape-23" data-name="Shape" d="M110.037,63.308V39.226c1.884-.563,3.79-1.083,5.739-1.516a6.488,6.488,0,1,0-2.707-12.691C92.928,29.5,74.086,40.763,58.688,54.147A27.786,27.786,0,0,0,55.7,44.359,25.988,25.988,0,1,0,10.415,26.643l-3.79,1.083A8.663,8.663,0,0,0,.452,37.342l5.089,33.98a8.663,8.663,0,0,0,5.371,6.757L12,78.511C-6.218,98.5,8.249,130.986,35.32,130.986a31.468,31.468,0,0,0,26.746-15.16,1.473,1.473,0,0,0,.3-.5,31.121,31.121,0,0,0,2.166-27.266c0-21.159.13-19.491-.39-21.527,9.941-9.031,24.429-19.9,41.538-25.988V63.308L90.329,92.329A21.375,21.375,0,0,0,86.214,105a21.657,21.657,0,1,0,39.134-12.734Zm3.877-34.11a2.166,2.166,0,0,1,2.274,3.27c-.823,1.3-1.364.585-9.118,3.054-19.665,6.389-36.016,18.907-46.844,28.89C57.021,67.38,52.841,71.8,49.4,75.545a12.539,12.539,0,0,0-.78-5.739C65.229,51.484,89.354,34.7,113.913,29.2ZM30.946,76.844,20.637,74.418a5.544,5.544,0,0,1-3.725-5.176V61.857c3.747,4.331,6.714,5.306,19.946,11.89a8.533,8.533,0,0,0,8.208-.238V95.036a5.415,5.415,0,0,1-10.828.217V81.175A4.331,4.331,0,0,0,30.946,77ZM43.94,51.765a19.188,19.188,0,0,1,1.624,6.909c-.715-.476,0,0-11.673-5.934a26.1,26.1,0,0,0,10.027-.823ZM25.293,50.314a8.663,8.663,0,0,0,4.331,5.133l12.994,6.5A4.329,4.329,0,0,1,38.764,69.7L25.77,63.2a17.326,17.326,0,0,1-9.377-18.192l.195-1.234a25.577,25.577,0,0,0,8.684,6.692ZM49.4,82c2.772-3.119,7.06-7.818,10.828-11.608V91.029a5.414,5.414,0,0,1-10.828,0Zm.13-19.491a19.708,19.708,0,0,0-1.581-12.3,25.815,25.815,0,0,0,4.461-2.815,35.041,35.041,0,0,1,2.166,10.157c-1.624,1.711-3.335,3.335-5.046,5.068Zm6.064-45.48A21.484,21.484,0,0,1,56.284,35.7a15.29,15.29,0,0,1-.758,1.451c-8.316,4.83-20.141,3.552-26.292-2.3a10.006,10.006,0,0,1,0-15.463c6.5-6.216,18.452-7.017,26.357-2.361ZM19.316,13.714a21.657,21.657,0,0,1,30.9-3.335c-8.36-1.819-17.91,0-23.974,5.761-13.6,12.843,2.166,32.247,23.823,27.548A21.657,21.657,0,0,1,19.316,13.714ZM9.83,70.672,4.741,36.692a4.331,4.331,0,0,1,3.075-4.808l2.924-.823a26.747,26.747,0,0,0,2.534,7.8,21.657,21.657,0,0,0-1.169,5.5,21.419,21.419,0,0,0,.476,9.183v15.7a9.789,9.789,0,0,0,1.754,5.544L12.58,74.05a4.331,4.331,0,0,1-2.75-3.378Zm9.248,24.581a7.558,7.558,0,0,1-10.7,6.887,27.071,27.071,0,0,1,2.6-14.467,7.537,7.537,0,0,1,8.1,7.58ZM9.289,106.926a11.893,11.893,0,0,0,4.2-23.411,26.487,26.487,0,0,1,5.154-5.263c1.148.476-.888,0,11.262,2.945V95.252A9.724,9.724,0,0,0,48.791,98.5a9.594,9.594,0,0,0,13.6-1.364,26.855,26.855,0,0,1-2.534,14.034,10.828,10.828,0,0,0-15.571,13.969,27.028,27.028,0,0,1-35-18.214Zm38.853,16.5a6.5,6.5,0,0,1,9.442-8.49,27.331,27.331,0,0,1-9.442,8.49ZM105.835,87.8a17.044,17.044,0,0,1,8.468,1.126,4.158,4.158,0,0,1-4.331,2.815C107.59,91.744,105.164,90.011,105.835,87.8Zm10.828-2.534a21.527,21.527,0,0,0-17.759,0l8.966-16.784ZM90.546,105a17.326,17.326,0,0,1,10.828-16.069,8.23,8.23,0,0,0,8.663,7.147,8.663,8.663,0,0,0,8.1-5,17.326,17.326,0,0,1,7.06,12.388,10.828,10.828,0,0,0-11.565,17.889A17.326,17.326,0,0,1,90.546,105Zm27.288,14.142a6.5,6.5,0,1,1,7.039-10.828A17.326,17.326,0,0,1,117.833,119.14Z" transform="translate(-0.355 -0.962)" fill="#203049"/>
      <path id="Shape-24" data-name="Shape" d="M50.58,45.88a7.58,7.58,0,1,0,7.58,7.58A7.58,7.58,0,0,0,50.58,45.88Zm0,10.828a3.249,3.249,0,1,1,3.249-3.249A3.249,3.249,0,0,1,50.58,56.708Z" transform="translate(49.356 51.399)"/>
      <path id="Shape-25" data-name="Shape" d="M18.663,49a8.663,8.663,0,1,0,8.663,8.663A8.663,8.663,0,0,0,18.663,49Zm0,12.994a4.331,4.331,0,1,1,4.331-4.331A4.331,4.331,0,0,1,18.663,61.994Z" transform="translate(10.888 55.036)" fill="#203049"/>
      <path id="Shape-26" data-name="Shape" d="M39.5,8a2.166,2.166,0,0,0-2.166,2.166v2.166H35.166a2.166,2.166,0,1,0,0,4.331h2.166v2.166a2.166,2.166,0,0,0,4.331,0V16.663h2.166a2.166,2.166,0,0,0,0-4.331H41.663V10.166A2.166,2.166,0,0,0,39.5,8Z" transform="translate(37.699 7.243)" fill="#203049"/>
      <path id="Shape-27" data-name="Shape" d="M43.331,37.663v2.166a2.166,2.166,0,0,0,4.331,0V37.663h2.166a2.166,2.166,0,0,0,0-4.331H47.663V31.166a2.166,2.166,0,0,0-4.331,0v2.166H41.166a2.166,2.166,0,1,0,0,4.331Z" transform="translate(44.693 31.722)" fill="#203049"/>
      <path id="Shape-28" data-name="Shape" d="M57.5,2a2.166,2.166,0,0,0-2.166,2.166V6.331H53.166a2.166,2.166,0,0,0,0,4.331h2.166v2.166a2.166,2.166,0,1,0,4.331,0V10.663h2.166a2.166,2.166,0,1,0,0-4.331H59.663V4.166A2.166,2.166,0,0,0,57.5,2Z" transform="translate(58.682 0.248)" fill="#203049"/>
    </g>
  </g>
</svg>
