<svg xmlns="http://www.w3.org/2000/svg" width="33" height="33" viewBox="0 0 33 33">
  <g id="Group_8920" data-name="Group 8920" transform="translate(-82 -259)">
    <g id="Group_8872" data-name="Group 8872">
      <g id="Ellipse_40" data-name="Ellipse 40" transform="translate(85 262)" fill="#fafafa" stroke="#203049" stroke-width="3">
        <circle cx="13.5" cy="13.5" r="13.5" stroke="none"/>
        <circle cx="13.5" cy="13.5" r="15" fill="none"/>
      </g>
      <g id="photo-camera" transform="translate(91.15 228.327)">
        <circle id="Ellipse_3" data-name="Ellipse 3" cx="2.36" cy="2.36" r="2.36" transform="translate(4.983 45.983)" fill="#203049"/>
        <path id="Path_748" data-name="Path 748" d="M144.5,42.436l-.149-.743A.864.864,0,0,0,143.5,41H138.7a.864.864,0,0,0-.845.692l-.149.743Z" transform="translate(-133.749)" fill="#203049"/>
        <path id="Path_749" data-name="Path 749" d="M13.409,121H1.292A1.294,1.294,0,0,0,0,122.292v7.465a1.294,1.294,0,0,0,1.292,1.292H13.409a1.294,1.294,0,0,0,1.292-1.292v-7.465A1.294,1.294,0,0,0,13.409,121Zm-9.733,2.7H2.3a.431.431,0,1,1,0-.861H3.675a.431.431,0,1,1,0,.861Zm3.675,5.513a3.187,3.187,0,1,1,3.187-3.187A3.191,3.191,0,0,1,7.35,129.212Z" transform="translate(0 -77.703)" fill="#203049"/>
      </g>
    </g>
  </g>
</svg>
