<svg xmlns="http://www.w3.org/2000/svg" width="11.468" height="28.03" viewBox="0 0 11.468 28.03">
  <g id="Group_5102" data-name="Group 5102" transform="translate(-230 276.26) rotate(-90)">
    <path id="Path_3293" data-name="Path 3293" d="M315.829,259.04a.6.6,0,0,1-.642.551h-10.65a.6.6,0,0,1-.642-.551v-4.89a.6.6,0,0,1,.642-.551h10.65a.6.6,0,0,1,.642.551Z" transform="translate(-48.778 -20.862)" fill="#581003"/>
    <rect id="Rectangle_1058" data-name="Rectangle 1058" width="11.935" height="3.337" transform="translate(255.116 234.077)" fill="#7b1f1b"/>
    <rect id="Rectangle_1059" data-name="Rectangle 1059" width="11.935" height="0.368" transform="translate(255.116 237.498)" fill="#7b1f1b"/>
    <path id="Path_3294" data-name="Path 3294" d="M315.82,299.835a.5.5,0,0,0,.009-.087v-.236H303.894v.236a.493.493,0,0,0,.008.087Z" transform="translate(-48.778 -61.544)" fill="#7b1f1b"/>
    <path id="Path_3295" data-name="Path 3295" d="M304.239,303.225a.644.644,0,0,0,.6.368h10.65a.643.643,0,0,0,.6-.368Z" transform="translate(-49.082 -64.831)" fill="#7b1f1b"/>
    <rect id="Rectangle_1060" data-name="Rectangle 1060" width="11.935" height="0.3" transform="translate(255.116 233.692)" fill="#7b1f1b"/>
    <rect id="Rectangle_1061" data-name="Rectangle 1061" width="11.935" height="0.255" transform="translate(255.116 233.334)" fill="#7b1f1b"/>
    <path id="Path_3296" data-name="Path 3296" d="M315.841,254.128a.612.612,0,0,0-.64-.528H304.55a.612.612,0,0,0-.64.528Z" transform="translate(-48.792 -20.895)" fill="#7b1f1b"/>
    <path id="Path_3297" data-name="Path 3297" d="M315.829,269.725c0,.153-.288.278-.642.278h-10.65c-.355,0-.642-.125-.642-.278V267.26c0-.153.287-.278.642-.278h10.65c.355,0,.642.125.642.278Z" transform="translate(-48.778 -32.759)" fill="#8e1711"/>
    <g id="Group_5091" data-name="Group 5091" transform="translate(248.23 230)">
      <path id="Rectangle_1062" data-name="Rectangle 1062" d="M.681,0H3.649a.681.681,0,0,1,.681.681v0a.681.681,0,0,1-.681.681H.681A.681.681,0,0,1,0,.681v0A.681.681,0,0,1,.681,0Z" transform="translate(0 5.052)"/>
      <path id="Path_3298" data-name="Path 3298" d="M258.846,265.522H256.6c-2.372.025-3.155.847-3.155,1.131v1.091c0,.284.844,1.165,2.815,1.114l2.584,0Z" transform="translate(-252.842 -261.468)" fill="#a7170d"/>
      <path id="Path_3299" data-name="Path 3299" d="M277.844,245.76s-4.357.857-5.125,3.155c0,0-1.237,4.376,5.125,4.655Z" transform="translate(-269.792 -243.931)" fill="#c81c1a"/>
      <path id="Path_3300" data-name="Path 3300" d="M295.484,245.76a4.609,4.609,0,0,0-2.853,3.155s-.689,4.376,2.853,4.655Z" transform="translate(-287.432 -243.931)" fill="#a7170d"/>
      <g id="Group_5090" data-name="Group 5090" transform="translate(4.64 0)">
        <path id="Path_3301" data-name="Path 3301" d="M300.18,260.752a2.179,2.179,0,0,0-1.334,1.417,2.746,2.746,0,0,0,1.4,3.168Z" transform="translate(-297.553 -257.253)" fill="#400900"/>
        <g id="Group_5078" data-name="Group 5078" transform="translate(1.028 3.278)">
          <path id="Path_3302" data-name="Path 3302" d="M302.986,261.935a.234.234,0,0,0,.234.234h.644a.234.234,0,0,0,.234-.234h0a.234.234,0,0,0-.234-.234h-.644a.234.234,0,0,0-.234.234Z" transform="translate(-302.301 -261.344)" fill="#7c140a"/>
          <g id="Group_5077" data-name="Group 5077">
            <path id="Path_3303" data-name="Path 3303" d="M297.767,258.654s-.821.178-.67.719c.079.282.957.543,1.247.382.124-.068.144-.771.031-1.02C298.316,258.606,298,258.6,297.767,258.654Z" transform="translate(-297.078 -258.621)" fill="#e95433"/>
            <path id="Path_3304" data-name="Path 3304" d="M305.228,258.737c-.042-.092-.216-.123-.4-.112V259.8a.67.67,0,0,0,.366-.044C305.321,259.688,305.341,258.985,305.228,258.737Z" transform="translate(-303.932 -258.623)" fill="#a8a7a1"/>
            <path id="Path_3305" data-name="Path 3305" d="M297.262,259.115c.115-.341.667-.461.667-.461.232-.056.549-.048.608.081a1.165,1.165,0,0,1,.071.381Z" transform="translate(-297.241 -258.621)" fill="#e95433"/>
          </g>
        </g>
        <g id="Group_5080" data-name="Group 5080" transform="translate(1.028 7.007)">
          <path id="Path_3306" data-name="Path 3306" d="M302.986,294.5a.234.234,0,0,0,.234.234h.644a.234.234,0,0,0,.234-.234h0a.234.234,0,0,0-.234-.234h-.644a.234.234,0,0,0-.234.234Z" transform="translate(-302.301 -293.906)" fill="#7c140a"/>
          <g id="Group_5079" data-name="Group 5079">
            <path id="Path_3307" data-name="Path 3307" d="M297.767,291.216s-.821.178-.67.718c.079.282.957.543,1.247.382.124-.068.144-.771.031-1.02C298.316,291.168,298,291.159,297.767,291.216Z" transform="translate(-297.078 -291.183)" fill="#e95433"/>
            <path id="Path_3308" data-name="Path 3308" d="M305.228,291.3c-.042-.092-.216-.123-.4-.112v1.174a.667.667,0,0,0,.366-.043C305.321,292.249,305.341,291.546,305.228,291.3Z" transform="translate(-303.932 -291.184)" fill="#a8a7a1"/>
            <path id="Path_3309" data-name="Path 3309" d="M297.262,291.677c.115-.341.667-.461.667-.461.232-.057.549-.048.608.081a1.164,1.164,0,0,1,.071.38Z" transform="translate(-297.241 -291.183)" fill="#e95433"/>
          </g>
        </g>
        <path id="Path_3310" data-name="Path 3310" d="M290.7,271.937a.9.9,0,0,1-.555.816l-1.376.164a.538.538,0,0,1-.551-.523V271.3a.538.538,0,0,1,.551-.523l1.376.163c.3,0,.555.5.555.787Z" transform="translate(-288.221 -266.113)" fill="#74160a"/>
        <path id="Path_3311" data-name="Path 3311" d="M288.947,270.8l-.175-.021a.538.538,0,0,0-.551.523v1.094a.538.538,0,0,0,.551.523l.175-.021Z" transform="translate(-288.221 -266.113)" fill="#fffce6"/>
        <path id="Path_3312" data-name="Path 3312" d="M292.806,270.8l-.175-.021-.044,0v2.135l.044,0,.175-.021Z" transform="translate(-292.08 -266.113)" fill="#878888"/>
        <g id="Group_5089" data-name="Group 5089" transform="translate(1.585)">
          <g id="Group_5084" data-name="Group 5084" transform="translate(0.002 5.515)">
            <path id="Path_3313" data-name="Path 3313" d="M307.964,278.785,305.9,278.7a5.138,5.138,0,0,0,.238,1.55,14.931,14.931,0,0,0,1.046,2.167l.3-.272s-.358-1.307-.111-1.579A3.028,3.028,0,0,0,307.964,278.785Z" transform="translate(-305.435 -278.697)" fill="#a7170d"/>
            <g id="Group_5082" data-name="Group 5082" transform="translate(0.099 4.051)">
              <path id="Path_3314" data-name="Path 3314" d="M303.355,314.535c-.068-.525-.25-.936-.408-.92s-.23.456-.163.98.25.936.408.92S303.423,315.06,303.355,314.535Z" transform="translate(-302.76 -313.615)" fill="#878888"/>
              <g id="Group_5081" data-name="Group 5081" transform="translate(0.134)">
                <path id="Path_3315" data-name="Path 3315" d="M304.374,314.535c.068.525,0,.964-.163.98a.094.094,0,0,1-.033,0,1.366,1.366,0,0,0,.108-.955c-.063-.488-.225-.878-.375-.917a.1.1,0,0,1,.054-.025C304.124,313.6,304.306,314.01,304.374,314.535Z" transform="translate(-303.912 -313.615)" fill="#626362"/>
              </g>
            </g>
            <path id="Path_3316" data-name="Path 3316" d="M302.023,301.848a.114.114,0,0,1-.088-.038.23.23,0,0,1-.028-.174c0-.006,0-.01,0-.013s.008-.076.04-.347c.057-.488.164-1.4.164-1.5,0-.165.11-.185.114-.186l1.553-.389.011.044-1.555.389s-.078.017-.078.142c0,.107-.1.983-.165,1.506-.022.185-.039.331-.039.342s0,.009,0,.018a.2.2,0,0,0,.017.139.071.071,0,0,0,.055.022Z" transform="translate(-301.902 -296.824)" fill="#797a79"/>
            <g id="Group_5083" data-name="Group 5083" transform="translate(1.492 3.267)">
              <path id="Path_3317" data-name="Path 3317" d="M316.806,309.208a.109.109,0,0,1-.069.138l-.263.074a.109.109,0,0,1-.132-.081l-.484-1.706a.109.109,0,0,1,.07-.138l.263-.075a.11.11,0,0,1,.132.081Z" transform="translate(-315.726 -307.352)" fill="#313030"/>
              <path id="Path_3318" data-name="Path 3318" d="M315.423,306.9c.009.03,0,.059-.02.065l-.588.172c-.02.006-.043-.014-.051-.044h0c-.009-.03,0-.059.02-.065l.588-.172c.02-.006.043.014.052.044Z" transform="translate(-314.76 -306.859)" fill="#0c2518"/>
            </g>
          </g>
          <g id="Group_5088" data-name="Group 5088">
            <path id="Path_3319" data-name="Path 3319" d="M307.947,252.835l-2.065-.151a3.346,3.346,0,0,1,.192-1.215,18.72,18.72,0,0,1,1.092-2.2l.3.272s-.358,1.307-.111,1.579A2.833,2.833,0,0,1,307.947,252.835Z" transform="translate(-305.416 -247.034)" fill="#a7170d"/>
            <g id="Group_5086" data-name="Group 5086" transform="translate(0.099)">
              <path id="Path_3320" data-name="Path 3320" d="M303.336,230.98c-.068.525-.25.937-.408.92s-.23-.456-.163-.98.25-.936.408-.92S303.4,230.456,303.336,230.98Z" transform="translate(-302.741 -230)" fill="#878888"/>
              <g id="Group_5085" data-name="Group 5085" transform="translate(0.134 0)">
                <path id="Path_3321" data-name="Path 3321" d="M304.356,230.981c.068-.525-.005-.964-.163-.98a.1.1,0,0,0-.034,0,1.363,1.363,0,0,1,.108.956c-.063.488-.225.878-.374.917a.1.1,0,0,0,.054.025C304.106,231.917,304.288,231.506,304.356,230.981Z" transform="translate(-303.894 -230)" fill="#626362"/>
              </g>
            </g>
            <path id="Path_3322" data-name="Path 3322" d="M303.762,240.768l-1.557-.516h0s-.111-.021-.111-.185c0-.1-.107-1.013-.164-1.5-.032-.27-.04-.339-.04-.346a.1.1,0,0,0,0-.013.23.23,0,0,1,.028-.174A.114.114,0,0,1,302,238v.045a.07.07,0,0,0-.055.022.2.2,0,0,0-.017.139c0,.009,0,.015,0,.019s.018.156.04.341c.061.523.164,1.4.164,1.506,0,.125.074.141.077.141l1.56.517Z" transform="translate(-301.883 -237.068)" fill="#797a79"/>
            <g id="Group_5087" data-name="Group 5087" transform="translate(1.494 0.613)">
              <path id="Path_3323" data-name="Path 3323" d="M316.806,235.5a.109.109,0,0,0-.069-.138l-.263-.075a.11.11,0,0,0-.132.081l-.484,1.706a.11.11,0,0,0,.07.138l.263.075a.11.11,0,0,0,.132-.081Z" transform="translate(-315.726 -235.282)" fill="#313030"/>
              <path id="Path_3324" data-name="Path 3324" d="M315.423,250.942c.009-.03,0-.059-.02-.065l-.588-.172c-.02-.006-.043.014-.051.044h0c-.009.03,0,.059.02.065l.588.172c.02.006.043-.014.052-.044Z" transform="translate(-314.76 -248.915)" fill="#0c2518"/>
            </g>
          </g>
        </g>
        <path id="Path_3325" data-name="Path 3325" d="M313.342,271.237c0,.541-.29.979-.648.979s-.648-.439-.648-.979.29-.979.648-.979S313.342,270.7,313.342,271.237Z" transform="translate(-309.282 -265.652)" fill="#aeaeae"/>
        <path id="Path_3326" data-name="Path 3326" d="M313.342,271.237c0,.541-.29.979-.648.979s-.648-.439-.648-.979.29-.979.648-.979S313.342,270.7,313.342,271.237Z" transform="translate(-309.282 -265.652)" fill="#aeaeae"/>
        <path id="Path_3327" data-name="Path 3327" d="M315.741,273.05c0,.409-.22.741-.491.741s-.49-.332-.49-.741.22-.741.49-.741S315.741,272.641,315.741,273.05Z" transform="translate(-311.681 -267.466)" fill="#fff"/>
      </g>
      <path id="Path_3328" data-name="Path 3328" d="M273.74,255.977a4.564,4.564,0,0,1,3.045-3.4S273.816,253.424,273.74,255.977Z" transform="translate(-270.78 -250.005)" fill="#fff"/>
      <path id="Path_3329" data-name="Path 3329" d="M254.586,268.547s.287-1.051,2.357-1.332a5.274,5.274,0,0,0-1.994.519A1.108,1.108,0,0,0,254.586,268.547Z" transform="translate(-253.847 -262.954)" fill="#fff"/>
    </g>
    <g id="Group_5101" data-name="Group 5101" transform="translate(261.675 231.913)">
      <path id="Path_3330" data-name="Path 3330" d="M375.951,250.606c0,.3-.179.543-.4.543h0c-.22,0-.4-.243-.4-.543v-1.245c0-.3.178-.543.4-.543h0c.22,0,.4.243.4.543Z" transform="translate(-372.873 -248.615)" fill="#6a6b6a"/>
      <path id="Path_3331" data-name="Path 3331" d="M375.951,294.624c0,.3-.179.543-.4.543h0c-.22,0-.4-.243-.4-.543v-1.245c0-.3.178-.543.4-.543h0c.22,0,.4.243.4.543Z" transform="translate(-372.873 -287.526)" fill="#6a6b6a"/>
      <path id="Path_3332" data-name="Path 3332" d="M370.076,266.025c0,.355-.492.642-1.1.642H356.589c-.606,0-1.1-.288-1.1-.642v-2.9c0-.355.491-.643,1.1-.643h12.389c.606,0,1.1.288,1.1.643Z" transform="translate(-355.491 -260.69)" fill="#a7170d"/>
      <path id="Path_3333" data-name="Path 3333" d="M369.529,286.589a5.961,5.961,0,0,1-4.21,1.852c-2.777.109-5.292-.039-5.292-.039s-3.621-.594-4.536-3.13Z" transform="translate(-355.491 -280.839)" fill="#a7170d"/>
      <path id="Path_3334" data-name="Path 3334" d="M369.529,248.959a5.961,5.961,0,0,0-4.21-1.852c-2.777-.109-5.292.039-5.292.039s-3.621.594-4.536,3.13Z" transform="translate(-355.491 -247.067)" fill="#a7170d"/>
      <path id="Path_3335" data-name="Path 3335" d="M378.782,286.327a4.773,4.773,0,0,1-3.371,1.483c-2.224.087-4.238-.031-4.238-.031s-2.9-.475-3.633-2.507Z" transform="translate(-366.142 -280.839)" fill="#8e1711"/>
      <path id="Path_3336" data-name="Path 3336" d="M380.567,255.081a4.545,4.545,0,0,0-3.21-1.412c-2.117-.083-4.035.03-4.035.03s-2.761.453-3.458,2.387Z" transform="translate(-368.196 -252.876)" fill="#8e1711"/>
      <g id="Group_5100" data-name="Group 5100" transform="translate(8.036 1.508)">
        <path id="Path_3337" data-name="Path 3337" d="M426.79,268.69c0,.086-.131.157-.292.157h0c-.161,0-.292-.07-.292-.157v-3.372c0-.087.131-.156.292-.156h0c.161,0,.292.07.292.156Z" transform="translate(-426.037 -264.57)" fill="#a7170d"/>
        <g id="Group_5094" data-name="Group 5094" transform="translate(1.62)">
          <path id="Path_3338" data-name="Path 3338" d="M439.137,265.291c0,.049-.07.09-.157.09h0c-.087,0-.157-.04-.157-.09v-1.25c0-.049.07-.09.157-.09h0c.087,0,.157.04.157.09Z" transform="translate(-438.811 -263.5)" fill="#7c140a"/>
          <g id="Group_5093" data-name="Group 5093">
            <path id="Path_3339" data-name="Path 3339" d="M439.829,263.377a.234.234,0,0,1-.234.234h-.644a.234.234,0,0,1-.234-.234h0a.234.234,0,0,1,.234-.234h.644a.234.234,0,0,1,.234.234Z" transform="translate(-438.717 -262.786)" fill="#7c140a"/>
            <g id="Group_5092" data-name="Group 5092" transform="translate(0.426)">
              <path id="Path_3340" data-name="Path 3340" d="M443.075,260.1s.821.178.67.719c-.079.282-.957.543-1.247.382-.124-.068-.144-.771-.03-1.019C442.526,260.047,442.843,260.039,443.075,260.1Z" transform="translate(-442.392 -260.062)" fill="#e95433"/>
              <path id="Path_3341" data-name="Path 3341" d="M442.467,260.178c.042-.092.216-.123.4-.112v1.175a.67.67,0,0,1-.366-.043C442.374,261.129,442.354,260.426,442.467,260.178Z" transform="translate(-442.392 -260.064)" fill="#a8a7a1"/>
              <path id="Path_3342" data-name="Path 3342" d="M443.769,260.557c-.115-.341-.667-.461-.667-.461-.232-.057-.549-.048-.608.081a1.166,1.166,0,0,0-.071.38Z" transform="translate(-442.419 -260.062)" fill="#e95433"/>
            </g>
          </g>
        </g>
        <g id="Group_5097" data-name="Group 5097" transform="translate(1.62 2.825)">
          <path id="Path_3343" data-name="Path 3343" d="M439.137,284.5c0-.05-.07-.09-.157-.09h0c-.087,0-.157.04-.157.09v1.25c0,.05.07.09.157.09h0c.087,0,.157-.04.157-.09Z" transform="translate(-438.811 -284.414)" fill="#7c140a"/>
          <g id="Group_5096" data-name="Group 5096" transform="translate(0 0.698)">
            <path id="Path_3344" data-name="Path 3344" d="M439.829,293.742a.234.234,0,0,0-.234-.234h-.644a.234.234,0,0,0-.234.234h0a.234.234,0,0,0,.234.234h.644a.234.234,0,0,0,.234-.234Z" transform="translate(-438.717 -293.151)" fill="#7c140a"/>
            <g id="Group_5095" data-name="Group 5095" transform="translate(0.426)">
              <path id="Path_3345" data-name="Path 3345" d="M443.075,291.577s.821-.178.67-.718c-.079-.282-.957-.543-1.247-.382-.124.069-.144.771-.03,1.02C442.526,291.625,442.843,291.634,443.075,291.577Z" transform="translate(-442.392 -290.427)" fill="#e95433"/>
              <path id="Path_3346" data-name="Path 3346" d="M442.467,291.5c.042.092.216.122.4.112v-1.175a.67.67,0,0,0-.366.043C442.374,290.547,442.354,291.25,442.467,291.5Z" transform="translate(-442.392 -290.429)" fill="#a8a7a1"/>
              <path id="Path_3347" data-name="Path 3347" d="M443.769,296.363c-.115.341-.667.461-.667.461-.232.057-.549.048-.608-.081a1.163,1.163,0,0,1-.071-.38Z" transform="translate(-442.419 -295.674)" fill="#e95433"/>
            </g>
          </g>
        </g>
        <path id="Path_3348" data-name="Path 3348" d="M425.811,262.1a.53.53,0,1,1-.53-.53A.53.53,0,0,1,425.811,262.1Z" transform="translate(-424.751 -261.399)" fill="#a7170d"/>
        <path id="Path_3349" data-name="Path 3349" d="M425.811,289.8a.53.53,0,1,1-.53-.53A.53.53,0,0,1,425.811,289.8Z" transform="translate(-424.751 -285.884)" fill="#a7170d"/>
        <g id="Group_5098" data-name="Group 5098" transform="translate(3.626 1.442)">
          <rect id="Rectangle_1063" data-name="Rectangle 1063" width="1.688" height="1.723" fill="#e95433"/>
          <rect id="Rectangle_1064" data-name="Rectangle 1064" width="0.672" height="1.723" fill="#a8a7a1"/>
          <rect id="Rectangle_1065" data-name="Rectangle 1065" width="1.688" height="0.438" fill="#e95433"/>
        </g>
        <g id="Group_5099" data-name="Group 5099" transform="translate(0.774 0.8)">
          <path id="Path_3350" data-name="Path 3350" d="M435.009,266.959h-3.124c-.255,0-.461.288-.461.642v1.723c0,.355.206.642.461.642h3.124c.255,0,.461-.288.461-.642V267.6C435.47,267.247,435.264,266.959,435.009,266.959Zm.111,2.233c0,.3-.162.551-.362.551H432.3c-.2,0-.362-.247-.362-.551v-1.479c0-.3.162-.551.362-.551h2.454c.2,0,.362.247.362.551Z" transform="translate(-431.425 -266.959)" fill="#c4c4c3"/>
          <path id="Path_3351" data-name="Path 3351" d="M444.18,270.287a.136.136,0,0,1-.136.136h0a.136.136,0,0,1-.136-.136v-2.676a.136.136,0,0,1,.136-.136h0a.136.136,0,0,1,.136.136Z" transform="translate(-442.46 -267.415)" fill="#c4c4c3"/>
          <path id="Path_3352" data-name="Path 3352" d="M455.493,270.287a.136.136,0,0,1-.136.136h0a.136.136,0,0,1-.136-.136v-2.676a.136.136,0,0,1,.136-.136h0a.136.136,0,0,1,.136.136Z" transform="translate(-452.46 -267.415)" fill="#c4c4c3"/>
        </g>
      </g>
      <path id="Path_3353" data-name="Path 3353" d="M365.187,255.924a8.458,8.458,0,0,1-3.444,1.183c-1.6.318-1.253,1.249-1.253,1.249l.059.005-.059.005s-.343.931,1.253,1.248a8.459,8.459,0,0,1,3.444,1.183c1.229.691,3.487.873,3.732-1.616V257.54C368.674,255.051,366.416,255.233,365.187,255.924Z" transform="translate(-359.882 -254.5)" fill="#543a22"/>
      <path id="Path_3354" data-name="Path 3354" d="M367.092,259.531a7.152,7.152,0,0,1-2.913,1c-1.35.269-1.06,1.056-1.06,1.056l.05,0-.05,0s-.29.787,1.06,1.056a7.153,7.153,0,0,1,2.913,1c1.039.584,2.948.738,3.155-1.366V260.9C370.041,258.793,368.132,258.946,367.092,259.531Z" transform="translate(-362.212 -257.749)" fill="#6e4c30"/>
      <path id="Path_3355" data-name="Path 3355" d="M367.54,250.3a8.445,8.445,0,0,1,4.013-1.48A6.367,6.367,0,0,0,367.54,250.3Z" transform="translate(-366.142 -248.615)" fill="#fff"/>
      <path id="Path_3356" data-name="Path 3356" d="M381.857,307.418a21.951,21.951,0,0,0,5.718.593S383.073,308.064,381.857,307.418Z" transform="translate(-378.798 -300.416)" fill="#fff"/>
    </g>
  </g>
</svg>
