<svg xmlns="http://www.w3.org/2000/svg" width="17.279" height="21" viewBox="0 0 17.279 21">
  <g id="file" transform="translate(-45.338)">
    <path id="Path_3788" data-name="Path 3788" d="M62.482,17.226a.619.619,0,0,0,.136-.389V3.154A.615.615,0,0,0,62,2.539H60.025V.615A.615.615,0,0,0,59.41,0H45.952a.615.615,0,0,0-.615.615v17.23a.615.615,0,0,0,.615.615h1.977v1.924a.615.615,0,0,0,.615.615h9.744a.631.631,0,0,0,.425-.17l3.714-3.543a.779.779,0,0,0,.055-.06Zm-15.915,0v-16H58.8V2.539H48.545a.615.615,0,0,0-.615.615V17.23H46.567ZM49.16,3.77H61.387V16.226h-3.1a.615.615,0,0,0-.615.615V19.77H49.16ZM58.9,18.947V17.457h1.563Z" fill="#203049"/>
    <path id="Path_3789" data-name="Path 3789" d="M170.73,182.812h8.489a.615.615,0,0,0,0-1.23H170.73a.615.615,0,0,0,0,1.23Z" transform="translate(-119.66 -174.134)" fill="#203049"/>
    <path id="Path_3790" data-name="Path 3790" d="M170.73,242.951h8.489a.615.615,0,0,0,0-1.23H170.73a.615.615,0,0,0,0,1.23Z" transform="translate(-119.66 -231.807)" fill="#203049"/>
    <path id="Path_3791" data-name="Path 3791" d="M170.73,303.09h8.489a.615.615,0,0,0,0-1.23H170.73a.615.615,0,0,0,0,1.23Z" transform="translate(-119.66 -289.479)" fill="#203049"/>
    <path id="Path_3792" data-name="Path 3792" d="M175.776,362H170.73a.615.615,0,0,0,0,1.23h5.046a.615.615,0,0,0,0-1.23Z" transform="translate(-119.66 -347.151)" fill="#203049"/>
  </g>
</svg>
