<svg xmlns="http://www.w3.org/2000/svg" xmlns:xlink="http://www.w3.org/1999/xlink" width="30.613" height="42.019" viewBox="0 0 30.613 42.019">
  <defs>
    <linearGradient id="linear-gradient" x1="0.5" x2="0.5" y2="1" gradientUnits="objectBoundingBox">
      <stop offset="0" stop-color="#ff9a44"/>
      <stop offset="1" stop-color="#fc6076"/>
    </linearGradient>
    <linearGradient id="linear-gradient-4" x1="0.5" x2="0.5" y2="1" gradientUnits="objectBoundingBox">
      <stop offset="0" stop-color="#ec77ab"/>
      <stop offset="1" stop-color="#7873f5"/>
    </linearGradient>
  </defs>
  <g id="XMLID_166_" transform="translate(-77.506 -11)">
    <path id="XMLID_177_" d="M102.051,21A14.45,14.45,0,0,0,90.035,43.619c2.032,2.958,4.039,5.934,5.927,8.987l5.055,8.177a1.1,1.1,0,0,0,1.873,0L107,54.133c2.174-3.516,4.4-7,6.78-10.383A14.45,14.45,0,0,0,102.051,21Zm3.794,17.858a5.488,5.488,0,1,1,0-7.761A5.488,5.488,0,0,1,105.846,38.859Z" transform="translate(-9.142 -9.142)" fill="url(#linear-gradient)"/>
    <path id="XMLID_212_" d="M102.051,21A14.456,14.456,0,0,0,88.487,40.694l18.718-18.718A14.5,14.5,0,0,0,102.051,21Z" transform="translate(-9.142 -9.142)" fill="url(#linear-gradient)"/>
    <path id="XMLID_197_" d="M149.775,21a14.4,14.4,0,0,0-10.07,3.994l6.1,6.1,9.121-9.121A14.5,14.5,0,0,0,149.775,21Z" transform="translate(-56.865 -9.142)" fill="url(#linear-gradient)"/>
    <g id="XMLID_137_" transform="translate(79.346 12.833)">
      <path id="XMLID_179_" d="M108.558,146.506a5.488,5.488,0,0,1,0-7.761l-9.6,9.6a14.411,14.411,0,0,0,1.548,2.925c1.5,2.189,2.993,4.387,4.431,6.619l11.379-11.379a5.488,5.488,0,0,1-7.761,0Z" transform="translate(-98.961 -129.623)" fill="url(#linear-gradient-4)"/>
      <path id="XMLID_180_" d="M218.634,41.5a5.488,5.488,0,0,1,0,7.761l9.311-9.311a14.407,14.407,0,0,0-7.951-7.572L210.873,41.5A5.488,5.488,0,0,1,218.634,41.5Z" transform="translate(-201.276 -32.375)" fill="url(#linear-gradient-4)"/>
    </g>
    <g id="XMLID_87_" transform="translate(77.506 11)">
      <path id="XMLID_191_" d="M103.744,15.567A15.316,15.316,0,0,0,80.187,34.962c1.92,2.795,3.964,5.814,5.9,8.952l5.055,8.177a1.959,1.959,0,0,0,3.332,0l4.111-6.649c2.618-4.234,4.7-7.423,6.752-10.341a15.342,15.342,0,0,0-1.6-19.534Zm1.241,4.655-5.824,5.824a6.338,6.338,0,0,0-6.338-6.557c-.07,0-.139,0-.208.005l5.654-5.654a13.6,13.6,0,0,1,6.716,6.381ZM89.549,22.561a4.631,4.631,0,0,1,6.55,6.548l0,0a4.631,4.631,0,0,1-6.548-6.55ZM92.9,12.716a13.779,13.779,0,0,1,3.573.492l-7.534,7.534-4.856-4.856a13.484,13.484,0,0,1,8.725-3.171H92.9Zm-10.06,4.353,4.886,4.886-8.009,8.01a13.6,13.6,0,0,1,3.124-12.9ZM80.356,31.754l6.129-6.129a6.338,6.338,0,0,0,6.338,6.557c.07,0,.139,0,.208-.005L85.468,39.74c-1.3-1.994-2.611-3.92-3.867-5.749A13.564,13.564,0,0,1,80.356,31.754Zm23.582,2.36c-2.072,2.946-4.172,6.162-6.808,10.426L93.02,51.189a.244.244,0,0,1-.415,0L87.55,43.012q-.561-.907-1.13-1.8L105.7,21.937a13.722,13.722,0,0,1,.707,4.527,13.508,13.508,0,0,1-2.465,7.65Z" transform="translate(-77.506 -11)" fill="#203049"/>
    </g>
  </g>
</svg>
