<svg id="no_data" data-name="no data" xmlns="http://www.w3.org/2000/svg" xmlns:xlink="http://www.w3.org/1999/xlink" width="147.896" height="130.024" viewBox="0 0 147.896 130.024">
  <defs>
    <linearGradient id="linear-gradient" x1="0.5" x2="0.5" y2="1" gradientUnits="objectBoundingBox">
      <stop offset="0" stop-color="#ff9a44"/>
      <stop offset="1" stop-color="#fc6076"/>
    </linearGradient>
    <linearGradient id="linear-gradient-3" x1="0.5" x2="0.5" y2="1" gradientUnits="objectBoundingBox">
      <stop offset="0" stop-color="#ec77ab"/>
      <stop offset="1" stop-color="#7873f5"/>
    </linearGradient>
  </defs>
  <g id="Group_334" data-name="Group 334" transform="translate(2.168 2.166)">
    <path id="Path_429" data-name="Path 429" d="M227.6,156.827v81.186H118.432a3.307,3.307,0,0,1-3.307-3.307V145.642a3.305,3.305,0,0,1,3.307-3.307h40.111a3.3,3.3,0,0,1,2.337.968l9.249,9.249a3.305,3.305,0,0,0,2.34.968h51.824a3.309,3.309,0,0,1,3.307,3.307Z" transform="translate(-84.038 -112.322)" fill="#d7dde6"/>
    <g id="Group_333" data-name="Group 333" transform="translate(31.087 30.013)">
      <path id="Path_431" data-name="Path 431" d="M469.325,184.362v81.186H458.342V184.362a3.307,3.307,0,0,0-3.307-3.307h10.982A3.309,3.309,0,0,1,469.325,184.362Z" transform="translate(-356.85 -169.87)" fill="url(#linear-gradient)"/>
    </g>
    <path id="Path_432" data-name="Path 432" d="M117.335,326.98l33.732,41.475H40.163a3.307,3.307,0,0,1-2.566-1.22L8.252,331.154a3.307,3.307,0,0,1,2.566-5.394H114.769A3.307,3.307,0,0,1,117.335,326.98Z" transform="translate(-7.505 -242.764)" fill="url(#linear-gradient)"/>
    <path id="Path_433" data-name="Path 433" d="M380.133,368.451H365.91l-33.73-41.474a3.315,3.315,0,0,0-2.565-1.222h14.22a3.306,3.306,0,0,1,2.565,1.222Z" transform="translate(-236.571 -242.76)" fill="url(#linear-gradient-3)"/>
    <path id="Path_434" data-name="Path 434" d="M320.914,407.184h-29.18a2.889,2.889,0,0,1-2.3-1.139l-7.478-9.826a1.444,1.444,0,0,1,1.149-2.319h29.18a2.889,2.889,0,0,1,2.3,1.139l7.478,9.826A1.444,1.444,0,0,1,320.914,407.184Z" transform="translate(-202.468 -291.221)" fill="url(#linear-gradient-3)"/>
    <path id="Path_435" data-name="Path 435" d="M373.208,407.181H363.82a1.444,1.444,0,0,0,1.15-2.319l-7.478-9.824a2.883,2.883,0,0,0-2.3-1.141h9.385a2.884,2.884,0,0,1,2.3,1.141l7.479,9.824a1.445,1.445,0,0,1-1.15,2.319Z" transform="translate(-254.762 -291.219)" fill="url(#linear-gradient)"/>
    <path id="Path_436" data-name="Path 436" d="M80.449,69.474a31.038,31.038,0,1,0-31.038,31.038h25.46a2.311,2.311,0,0,0,1.634-3.944L71.359,91.42A30.94,30.94,0,0,0,80.449,69.474Z" transform="translate(-15.234 -38.435)" fill="url(#linear-gradient)"/>
    <path id="Path_437" data-name="Path 437" d="M140.038,96.567a2.309,2.309,0,0,1-1.632,3.943H127.938a2.309,2.309,0,0,0,1.632-3.943l-3.191-3.193a2.889,2.889,0,0,1-.161-3.906,31.042,31.042,0,0,0-18.5-50.592,31.039,31.039,0,0,1,27.179,52.543Z" transform="translate(-78.769 -38.434)" fill="url(#linear-gradient-3)"/>
    <path id="Path_438" data-name="Path 438" d="M99.527,113.462l5.774-5.774a4.333,4.333,0,0,0-6.128-6.128L93.4,107.334l-5.774-5.774a4.333,4.333,0,0,0-6.128,6.128l5.774,5.774L81.5,119.235a4.333,4.333,0,1,0,6.127,6.128l5.774-5.774,5.774,5.774a4.333,4.333,0,0,0,6.127-6.128Z" transform="translate(-59.222 -82.423)" fill="url(#linear-gradient-3)"/>
    <ellipse id="Ellipse_32" data-name="Ellipse 32" cx="8.063" cy="8.063" rx="8.063" ry="8.063" transform="translate(82.803 34.372)" fill="url(#linear-gradient)"/>
    <path id="Path_439" data-name="Path 439" d="M320.071,165.49a8.059,8.059,0,0,1-12.152,6.949,7.134,7.134,0,0,0,0-13.9,8.061,8.061,0,0,1,12.148,6.949Z" transform="translate(-221.142 -123.056)" fill="url(#linear-gradient-3)"/>
    <ellipse id="Ellipse_33" data-name="Ellipse 33" cx="6.363" cy="6.363" rx="6.363" ry="6.363" transform="translate(112.74 20.042)" fill="url(#linear-gradient)"/>
    <path id="Path_440" data-name="Path 440" d="M418.247,114.18a6.36,6.36,0,0,1-9.589,5.484,5.629,5.629,0,0,0,0-10.968,6.361,6.361,0,0,1,9.587,5.484Z" transform="translate(-292.782 -87.776)" fill="url(#linear-gradient-3)"/>
  </g>
  <g id="Group_335" data-name="Group 335" transform="translate(0 0)">
    <path id="Path_441" data-name="Path 441" d="M147.9,77.606a5.48,5.48,0,0,0-5.474-5.474H128.783a2.166,2.166,0,0,0,0,4.333h13.639a1.142,1.142,0,0,1,1.141,1.141V152.7L113.678,115.95a5.452,5.452,0,0,0-4.246-2.02H84.187a2.166,2.166,0,0,0,0,4.333h25.245a1.136,1.136,0,0,1,.885.421l30.858,37.942H34.826a1.136,1.136,0,0,1-.885-.421L4.6,120.124a1.141,1.141,0,0,1,.885-1.86H73.492a2.166,2.166,0,0,0,0-4.333H35.42V97.33c.307.008.616.014.925.014H61.8A4.477,4.477,0,0,0,64.97,89.7l-3.664-3.664a32.932,32.932,0,0,0,8.221-20.758h7.143a1.133,1.133,0,0,1,.806.334l6.079,6.079a10.227,10.227,0,1,0,19.662,4.774h14.869a2.166,2.166,0,0,0,0-4.333H102.678a10.218,10.218,0,0,0-16.622-4.068L80.541,62.55a5.437,5.437,0,0,0-3.87-1.6H69.392a32.977,32.977,0,0,0-5.622-15.529,2.167,2.167,0,1,0-3.577,2.446A28.874,28.874,0,0,1,56.76,84.554a2.166,2.166,0,0,0,0,3.064l5.147,5.147a.144.144,0,0,1-.1.246H36.345a28.871,28.871,0,1,1,16.9-52.278,2.166,2.166,0,1,0,2.54-3.51,33.2,33.2,0,1,0-24.7,59.7v17.005H5.481a5.474,5.474,0,0,0-4.246,8.927l29.345,36.081a5.452,5.452,0,0,0,4.246,2.02h110.9a2.186,2.186,0,0,0,2.166-2.168V77.606ZM93.034,69.639a5.9,5.9,0,1,1-5.9,5.9A5.9,5.9,0,0,1,93.034,69.639Z" transform="translate(0 -30.935)" fill="#203049"/>
    <path id="Path_442" data-name="Path 442" d="M274.9,392.2l7.478,9.826a5.083,5.083,0,0,0,4.023,1.994h29.18a3.611,3.611,0,0,0,2.874-5.8l-7.478-9.826a5.083,5.083,0,0,0-4.023-1.994h-29.18a3.611,3.611,0,0,0-2.873,5.8Zm32.053-1.465a.726.726,0,0,1,.575.285l6.6,8.667H286.4a.726.726,0,0,1-.575-.285l-6.6-8.667Z" transform="translate(-194.965 -283.721)" fill="#203049"/>
    <path id="Path_443" data-name="Path 443" d="M202.618,434.553a2.167,2.167,0,0,0,2.166,2.166h13.255a2.166,2.166,0,1,0,0-4.333H204.784A2.167,2.167,0,0,0,202.618,434.553Z" transform="translate(-144.09 -316.425)" fill="#203049"/>
    <path id="Path_444" data-name="Path 444" d="M220.074,411.844a2.166,2.166,0,1,0,0-4.333h-5.626a2.166,2.166,0,1,0,0,4.333Z" transform="translate(-150.963 -298.734)" fill="#203049"/>
    <path id="Path_445" data-name="Path 445" d="M103.4,99.291a6.5,6.5,0,0,0-11.095-4.6l-4.242,4.242L83.825,94.7a6.5,6.5,0,0,0-9.191,9.191l4.242,4.242-4.242,4.242a6.5,6.5,0,0,0,9.191,9.191l4.242-4.242,4.242,4.242a6.5,6.5,0,0,0,9.191-9.191l-4.242-4.242,4.242-4.242a6.456,6.456,0,0,0,1.9-4.6Zm-4.967,1.532L92.662,106.6a2.166,2.166,0,0,0,0,3.064l5.774,5.774a2.166,2.166,0,1,1-3.064,3.064L89.6,112.724a2.166,2.166,0,0,0-3.064,0L80.761,118.5a2.166,2.166,0,1,1-3.064-3.064l5.773-5.774a2.166,2.166,0,0,0,0-3.064L77.7,100.823a2.166,2.166,0,1,1,3.064-3.064l5.773,5.774a2.166,2.166,0,0,0,3.064,0l5.774-5.774a2.167,2.167,0,0,1,3.064,3.064Z" transform="translate(-51.721 -74.924)" fill="#203049"/>
    <path id="Path_446" data-name="Path 446" d="M398.832,117.376a8.529,8.529,0,1,0-8.529-8.529,8.539,8.539,0,0,0,8.529,8.529Zm0-12.725a4.2,4.2,0,1,1-4.2,4.2A4.2,4.2,0,0,1,398.832,104.651Z" transform="translate(-277.561 -80.276)" fill="#203049"/>
    <path id="Path_447" data-name="Path 447" d="M342.666,81.829a2.166,2.166,0,0,0,3.064,0l1.172-1.172,1.172,1.172a2.166,2.166,0,0,0,3.064-3.064l-1.172-1.172,1.172-1.172a2.166,2.166,0,0,0-3.064-3.064L346.9,74.53l-1.172-1.172a2.166,2.166,0,0,0-3.064,3.064l1.172,1.172-1.172,1.172a2.166,2.166,0,0,0,0,3.064Z" transform="translate(-243.233 -60.652)" fill="#203049"/>
    <path id="Path_448" data-name="Path 448" d="M26.754,268.5a2.166,2.166,0,0,0,3.064,0l2.041-2.041L33.9,268.5a2.166,2.166,0,0,0,3.064-3.064l-2.041-2.041,2.041-2.041a2.166,2.166,0,1,0-3.064-3.064l-2.041,2.041-2.041-2.041a2.166,2.166,0,0,0-3.064,3.064l2.041,2.041-2.041,2.041a2.166,2.166,0,0,0,0,3.064Z" transform="translate(-18.575 -192.165)" fill="#203049"/>
  </g>
</svg>
