<svg xmlns="http://www.w3.org/2000/svg" xmlns:xlink="http://www.w3.org/1999/xlink" width="99.426" height="116.756" viewBox="0 0 99.426 116.756">
  <defs>
    <linearGradient id="linear-gradient" x1="0.5" x2="0.5" y2="1" gradientUnits="objectBoundingBox">
      <stop offset="0" stop-color="#ec77ab"/>
      <stop offset="1" stop-color="#7873f5"/>
    </linearGradient>
    <linearGradient id="linear-gradient-2" x1="0.5" x2="0.5" y2="1" gradientUnits="objectBoundingBox">
      <stop offset="0" stop-color="#ff9a44"/>
      <stop offset="1" stop-color="#fc6076"/>
    </linearGradient>
  </defs>
  <g id="surface1" transform="translate(-0.5 0)">
    <path id="Path_331" data-name="Path 331" d="M94.675,77.969A58.9,58.9,0,0,1,80.566,99.947c-7.084,6.918-16.361,12.415-27.572,16.336a8.435,8.435,0,0,1-2.679.473h-.1a8.555,8.555,0,0,1-1.644-.162,8.907,8.907,0,0,1-1.13-.308c-11.225-3.915-20.513-9.409-27.6-16.327A58.793,58.793,0,0,1,5.73,77.985C.032,62.521.356,45.486.617,31.8l0-.21c.053-1.13.086-2.318.105-3.629A12.374,12.374,0,0,1,12.379,15.835C25.8,15.085,36.187,10.707,45.06,2.059l.078-.071a7.479,7.479,0,0,1,10.154,0l.076.071c8.875,8.649,19.26,13.027,32.684,13.776A12.374,12.374,0,0,1,99.7,27.957c.019,1.32.053,2.506.105,3.629l0,.089C100.071,45.391,100.393,62.459,94.675,77.969Zm0,0" transform="translate(0 0)" fill="url(#linear-gradient)"/>
    <path id="Path_332" data-name="Path 332" d="M263.309,77.972A58.9,58.9,0,0,1,249.2,99.95c-7.084,6.918-16.361,12.415-27.572,16.336a8.435,8.435,0,0,1-2.679.473V0a7.491,7.491,0,0,1,4.977,1.986l.076.071c8.875,8.649,19.26,13.027,32.684,13.776A12.374,12.374,0,0,1,268.337,27.96c.019,1.32.053,2.506.105,3.629l0,.089C268.705,45.393,269.028,62.462,263.309,77.972Zm0,0" transform="translate(-168.634 -0.003)" fill="url(#linear-gradient-2)"/>
    <path id="Path_333" data-name="Path 333" d="M149.092,157.5a29.134,29.134,0,0,1-29,29.1h-.1a29.1,29.1,0,1,1,0-58.2h.1A29.134,29.134,0,0,1,149.092,157.5Zm0,0" transform="translate(-69.781 -99.118)" fill="url(#linear-gradient-2)"/>
    <path id="Path_334" data-name="Path 334" d="M247.945,157.5a29.134,29.134,0,0,1-29,29.1V128.4A29.134,29.134,0,0,1,247.945,157.5Zm0,0" transform="translate(-168.634 -99.118)" fill="url(#linear-gradient)"/>
    <path id="Path_335" data-name="Path 335" d="M182.053,217.828l-13.105,13.107-2.832,2.832a3.429,3.429,0,0,1-4.847,0l-6.088-6.091a3.425,3.425,0,0,1,4.844-4.844l3.668,3.668,13.516-13.516a3.425,3.425,0,0,1,4.844,4.844Zm0,0" transform="translate(-118.633 -163.64)" fill="#fff"/>
    <path id="Path_336" data-name="Path 336" d="M232.054,217.828l-13.105,13.107v-9.691l8.261-8.26a3.425,3.425,0,0,1,4.844,4.844Zm0,0" transform="translate(-168.634 -163.64)" fill="#fff"/>
  </g>
</svg>
