<svg id="synchronize" xmlns="http://www.w3.org/2000/svg" xmlns:xlink="http://www.w3.org/1999/xlink" width="116.756" height="116.756" viewBox="0 0 116.756 116.756">
  <defs>
    <linearGradient id="linear-gradient" x1="0.5" x2="0.5" y2="1" gradientUnits="objectBoundingBox">
      <stop offset="0" stop-color="#ec77ab"/>
      <stop offset="1" stop-color="#7873f5"/>
    </linearGradient>
    <linearGradient id="linear-gradient-2" x1="0.5" x2="0.5" y2="1" gradientUnits="objectBoundingBox">
      <stop offset="0" stop-color="#ff9a44"/>
      <stop offset="1" stop-color="#fc6076"/>
    </linearGradient>
  </defs>
  <path id="Path_337" data-name="Path 337" d="M46.783,42.567A4.86,4.86,0,0,1,41.919,37.7V24.324a14.594,14.594,0,0,0-29.189,0V37.7A4.865,4.865,0,0,1,3,37.7V24.324a24.324,24.324,0,1,1,48.648,0V37.7A4.86,4.86,0,0,1,46.783,42.567Z" transform="translate(11.594)" fill="url(#linear-gradient)"/>
  <path id="Path_338" data-name="Path 338" d="M66.891,70.243H10.946A10.962,10.962,0,0,1,0,59.3V17.946A10.962,10.962,0,0,1,10.946,7H66.891A10.962,10.962,0,0,1,77.837,17.946V59.3A10.962,10.962,0,0,1,66.891,70.243Z" transform="translate(0 27.054)" fill="url(#linear-gradient-2)"/>
  <path id="Path_339" data-name="Path 339" d="M27.324,0A24.352,24.352,0,0,0,3,24.324v9.73h9.73v-9.73A14.612,14.612,0,0,1,27.324,9.73Z" transform="translate(11.594)" fill="url(#linear-gradient-2)"/>
  <path id="Path_340" data-name="Path 340" d="M38.919,7H10.946A10.962,10.962,0,0,0,0,17.946V59.3A10.962,10.962,0,0,0,10.946,70.243H38.919Z" transform="translate(0 27.054)" fill="url(#linear-gradient)"/>
  <path id="Path_341" data-name="Path 341" d="M58.884,20.387a4.865,4.865,0,0,0-6.592,1.956A15.708,15.708,0,0,1,30.07,28.3l2.321-2.321a3.647,3.647,0,0,0-2.578-6.227H17.65A3.65,3.65,0,0,0,14,23.4V35.561a3.646,3.646,0,0,0,6.227,2.578l2.788-2.788A25.594,25.594,0,0,0,60.84,26.979a4.858,4.858,0,0,0-1.956-6.592Z" transform="translate(54.111 76.33)" fill="#d7dde6"/>
  <path id="Path_342" data-name="Path 342" d="M59.432,14.994a3.653,3.653,0,0,0-3.975.793L52.67,18.574A25.576,25.576,0,0,0,14.831,27,4.867,4.867,0,0,0,23.4,31.617a15.672,15.672,0,0,1,22.208-5.989L43.3,27.949a3.647,3.647,0,0,0,2.578,6.227H58.036a3.65,3.65,0,0,0,3.649-3.649V18.365a3.658,3.658,0,0,0-2.252-3.371Z" transform="translate(55.071 52.175)" fill="#d7dde6"/>
</svg>
