<svg xmlns="http://www.w3.org/2000/svg" width="15.996" height="21" viewBox="0 0 15.996 21">
  <g id="insurance" transform="translate(-61)">
    <path id="Path_693" data-name="Path 693" d="M76.816,4.282l-4.1-4.1A.615.615,0,0,0,72.279,0H63.256A2.258,2.258,0,0,0,61,2.256V18.744A2.258,2.258,0,0,0,63.256,21H74.74A2.258,2.258,0,0,0,77,18.744V4.717A.615.615,0,0,0,76.816,4.282ZM72.895,2.1l2,2h-2ZM74.74,19.77H63.256a1.027,1.027,0,0,1-1.025-1.025V2.256A1.027,1.027,0,0,1,63.256,1.23h8.408V4.717a.615.615,0,0,0,.615.615h3.486V18.744A1.027,1.027,0,0,1,74.74,19.77Z" fill="#203049"/>
    <path id="Path_694" data-name="Path 694" d="M149.818,163.641a2.028,2.028,0,0,1-1.824-1.127l-.087-.173a.615.615,0,0,0-.55-.34h-3.281a.615.615,0,0,0-.55.34l-.087.173a2.028,2.028,0,0,1-1.824,1.127.615.615,0,0,0-.615.615v3.511a6.37,6.37,0,0,0,4.54,6.1.615.615,0,0,0,.354,0,6.37,6.37,0,0,0,4.54-6.1v-3.511A.615.615,0,0,0,149.818,163.641Zm-.615,4.126a5.107,5.107,0,0,1-3.486,4.867,5.107,5.107,0,0,1-3.486-4.867v-2.953a3.246,3.246,0,0,0,2.22-1.583h2.533a3.246,3.246,0,0,0,2.22,1.583Z" transform="translate(-76.719 -155.355)" fill="#203049"/>
    <path id="Path_695" data-name="Path 695" d="M202.234,263.9l-1.885,1.885-.725-.725a.615.615,0,0,0-.87.87l1.16,1.16a.615.615,0,0,0,.87,0l2.32-2.32a.615.615,0,0,0-.87-.87Z" transform="translate(-131.931 -252.899)" fill="#203049"/>
  </g>
</svg>
