<svg xmlns="http://www.w3.org/2000/svg" width="18.529" height="21" viewBox="0 0 18.529 21">
  <path id="call-center-agent" d="M42.332,13.588h-.6v-.777a4.329,4.329,0,0,0,1.809-2.928h.662a1.855,1.855,0,0,0,1.853-1.853V6.794a6.794,6.794,0,0,0-13.588,0V8.029a1.855,1.855,0,0,0,1.853,1.853h.662a4.329,4.329,0,0,0,1.809,2.928v.778h-.6a6.2,6.2,0,0,0-6.2,6.2v.6a.618.618,0,0,0,.618.618H47.912a.618.618,0,0,0,.618-.618v-.6A6.2,6.2,0,0,0,42.332,13.588Zm1.874-4.941h-.618V7.412h.618a.618.618,0,0,1,0,1.235ZM39.265,1.235A5.566,5.566,0,0,1,44.8,6.274a1.845,1.845,0,0,0-.593-.1h-.662a4.324,4.324,0,0,0-8.558,0h-.662a1.845,1.845,0,0,0-.593.1,5.566,5.566,0,0,1,5.534-5.039ZM33.706,8.029a.618.618,0,0,1,.618-.618h.618V8.647h-.618A.618.618,0,0,1,33.706,8.029Zm2.471,1.235V6.794a3.088,3.088,0,0,1,6.176,0V8.647H39.265a.618.618,0,1,0,0,1.235h3.026a3.088,3.088,0,0,1-6.114-.618Zm3.088,4.324a4.31,4.31,0,0,0,1.235-.18v.8a1.235,1.235,0,0,1-2.471,0v-.8A4.311,4.311,0,0,0,39.265,13.588Zm5.559,6.176V17.912a.618.618,0,1,0-1.235,0v1.853H34.941V17.912a.618.618,0,1,0-1.235,0v1.853H31.235A4.967,4.967,0,0,1,36.2,14.824h.675A2.48,2.48,0,0,0,38.647,16.6v1.313a.618.618,0,0,0,1.235,0V16.6a2.48,2.48,0,0,0,1.775-1.775h.675a4.967,4.967,0,0,1,4.962,4.941Z" transform="translate(-30)" fill="#203049"/>
</svg>
