<svg xmlns="http://www.w3.org/2000/svg" width="20.119" height="21" viewBox="0 0 20.119 21">
  <g id="accept" transform="translate(0 0.001)">
    <path id="Path_696" data-name="Path 696" d="M66.045,98.637H62.373a.615.615,0,1,0,0,1.23h3.672a.615.615,0,1,0,0-1.23Zm0,0" transform="translate(-59.225 -94.592)" fill="#203049"/>
    <path id="Path_697" data-name="Path 697" d="M66.045,158.641H62.373a.615.615,0,1,0,0,1.23h3.672a.615.615,0,1,0,0-1.23Zm0,0" transform="translate(-59.225 -152.135)" fill="#203049"/>
    <path id="Path_698" data-name="Path 698" d="M66.045,218.645H62.373a.615.615,0,1,0,0,1.23h3.672a.615.615,0,1,0,0-1.23Zm0,0" transform="translate(-59.225 -209.678)" fill="#203049"/>
    <path id="Path_699" data-name="Path 699" d="M66.045,278.648H62.373a.615.615,0,1,0,0,1.23h3.672a.615.615,0,1,0,0-1.23Zm0,0" transform="translate(-59.225 -267.22)" fill="#203049"/>
    <path id="Path_700" data-name="Path 700" d="M66.045,339.656H62.373a.615.615,0,0,0,0,1.23h3.672a.615.615,0,0,0,0-1.23Zm0,0" transform="translate(-59.225 -325.726)" fill="#203049"/>
    <path id="Path_701" data-name="Path 701" d="M202.271,99.867h3.672a.615.615,0,1,0,0-1.23h-3.672a.615.615,0,1,0,0,1.23Zm0,0" transform="translate(-193.385 -94.592)" fill="#203049"/>
    <path id="Path_702" data-name="Path 702" d="M202.271,159.871h3.672a.615.615,0,1,0,0-1.23h-3.672a.615.615,0,1,0,0,1.23Zm0,0" transform="translate(-193.385 -152.135)" fill="#203049"/>
    <path id="Path_703" data-name="Path 703" d="M204.655,219.26a.615.615,0,0,0-.615-.615h-1.768a.615.615,0,0,0,0,1.23h1.768A.615.615,0,0,0,204.655,219.26Zm0,0" transform="translate(-193.385 -209.678)" fill="#203049"/>
    <path id="Path_704" data-name="Path 704" d="M313.839,342.823a.615.615,0,0,0-.865.095l-1.585,1.975-.981-.711a.615.615,0,1,0-.722,1l1.455,1.054a.615.615,0,0,0,.841-.113l1.951-2.432A.615.615,0,0,0,313.839,342.823Zm0,0" transform="translate(-296.741 -328.633)" fill="#203049"/>
    <path id="Path_705" data-name="Path 705" d="M18.653,12.3a5.074,5.074,0,0,0-2.947-1.481V2.477A2.481,2.481,0,0,0,13.228,0H2.478A2.481,2.481,0,0,0,0,2.477V16.729a2.481,2.481,0,0,0,2.478,2.478h8.647A5.065,5.065,0,0,0,15.01,21a5.113,5.113,0,0,0,3.643-8.7ZM1.23,16.729V2.477A1.249,1.249,0,0,1,2.478,1.23H13.228a1.249,1.249,0,0,1,1.247,1.247V10.8a5.116,5.116,0,0,0-4.13,7.175H2.478A1.249,1.249,0,0,1,1.23,16.729Zm13.779,3.04a3.882,3.882,0,0,1,0-7.765h.07a3.882,3.882,0,0,1-.07,7.764Zm0,0" fill="#203049"/>
  </g>
</svg>
