<svg xmlns="http://www.w3.org/2000/svg" width="21" height="20.984" viewBox="0 0 21 20.984">
  <path id="translate" d="M3.4,8.463a.82.82,0,0,0,.82-.82V6.371H7.1V7.642a.82.82,0,0,0,1.641,0V3.254a3.076,3.076,0,0,0-6.152,0V7.642A.82.82,0,0,0,3.4,8.463Zm.82-5.209a1.436,1.436,0,0,1,2.871,0V4.73H4.225Zm4.8,12.107a2.272,2.272,0,0,1,.005,3.178L7.77,19.858a.82.82,0,0,1-1.185-1.134l.87-.909h-3.1A4.363,4.363,0,0,1,0,13.456V10.144a.82.82,0,0,1,1.641,0v3.312a2.72,2.72,0,0,0,2.717,2.717H7.513l-.95-.932A.82.82,0,1,1,7.711,14.07l1.307,1.282.009.009ZM21,7.981v3.312a.82.82,0,0,1-1.641,0V7.981a2.72,2.72,0,0,0-2.717-2.717H13.487l.95.932a.82.82,0,0,1-1.149,1.171L11.982,6.085l-.009-.009A2.272,2.272,0,0,1,11.968,2.9L13.23,1.579a.82.82,0,0,1,1.185,1.134l-.87.909h3.1A4.363,4.363,0,0,1,21,7.981Zm-1.23,6.552a.82.82,0,0,1-.82.82H18.5A8.3,8.3,0,0,1,16.77,19.06a3.992,3.992,0,0,0,1.933.477.82.82,0,0,1,0,1.641,5.582,5.582,0,0,1-3.2-.965,5.593,5.593,0,0,1-3.2.965.82.82,0,0,1,0-1.641,4.007,4.007,0,0,0,1.937-.473,7.54,7.54,0,0,1-.705-.993.82.82,0,0,1,1.408-.842,5.841,5.841,0,0,0,.561.786,5.79,5.79,0,0,0,.353-.464,6.7,6.7,0,0,0,.972-2.2H12.059a.82.82,0,0,1,0-1.641h2.666v-.82a.82.82,0,0,1,1.641,0v.82h2.584A.82.82,0,0,1,19.77,14.533Z" transform="translate(0 -0.193)" fill="#203049"/>
</svg>
